PathFileType	4	(X/Y/Z)	/Users/itak/Documents/Research/Walk-IL/dataset/trc/00165_00008.trc
DataRate	CameraRate	NumFrames	NumMarkers	Units	OrigDataRate	OrigDataStartFrame	OrigNumFrames
100.000000	100.000000	4	53	mm	100.000000	128	515
Frame#	Time	RPSI			LPSI			L3			STRN			T10			C7			CLAV			RBAK			LBAK			LSHO			LUPA			LAEL			LAOL			LWTS			LWPS			LFRA			LIFD			LHPS			LHTS			RSHO			RUPA			RAEL			RAOL			RWTS			RWPS			RFRA			RIFD			RHTS			RHPS			RBHD			LFHD			RFHD			LBHD			LHIP			RHIP			RASI			LASI			LKNE			LTHI			LANK			LTIP			LTOE			LMT1			LMT5			LHEE			RKNE			RTHI			RANK			RTIP			RTOE			RMT1			RMT5			RHEE			
		X1	Y1	Z1	X2	Y2	Z2	X3	Y3	Z3	X4	Y4	Z4	X5	Y5	Z5	X6	Y6	Z6	X7	Y7	Z7	X8	Y8	Z8	X9	Y9	Z9	X10	Y10	Z10	X11	Y11	Z11	X12	Y12	Z12	X13	Y13	Z13	X14	Y14	Z14	X15	Y15	Z15	X16	Y16	Z16	X17	Y17	Z17	X18	Y18	Z18	X19	Y19	Z19	X20	Y20	Z20	X21	Y21	Z21	X22	Y22	Z22	X23	Y23	Z23	X24	Y24	Z24	X25	Y25	Z25	X26	Y26	Z26	X27	Y27	Z27	X28	Y28	Z28	X29	Y29	Z29	X30	Y30	Z30	X31	Y31	Z31	X32	Y32	Z32	X33	Y33	Z33	X34	Y34	Z34	X35	Y35	Z35	X36	Y36	Z36	X37	Y37	Z37	X38	Y38	Z38	X39	Y39	Z39	X40	Y40	Z40	X41	Y41	Z41	X42	Y42	Z42	X43	Y43	Z43	X44	Y44	Z44	X45	Y45	Z45	X46	Y46	Z46	X47	Y47	Z47	X48	Y48	Z48	X49	Y49	Z49	X50	Y50	Z50	X51	Y51	Z51	X52	Y52	Z52	X53	Y53	Z53	

129	1.28	-1937.32373046875	1051.5888671875	108.4071350097656	-1938.449829101562	1055.080078125	-14.60636425018311	-1935.4375	1093.172241210938	50.49486923217773	-1665.4111328125	1288.625610351562	43.84883499145508	-1961.1015625	1255.910400390625	46.9094352722168	-1879.345581054688	1521.055541992188	37.26858901977539	-1686.535522460938	1405.382690429688	35.28142547607422	-1955.075805664062	1349.349487304688	144.9947967529297	-1889.345581054688	1496.665161132812	-64.64883422851562	-1814.283081054688	1479.165771484375	-143.8470001220703	-1850.248046875	1350.130126953125	-219.5488891601562	-1835.8427734375	1132.034057617188	-245.2120056152344	-1885.666137695312	1115.42578125	-173.9102325439453	-1718.427124023438	904.2919311523438	-212.2976837158203	-1797.9384765625	880.3923950195312	-257.4940185546875	-1818.41015625	1021.925964355469	-260.6907958984375	-1696.469360351562	719.6295166015625	-193.0794982910156	-1773.300537109375	811.6802978515625	-253.5147552490234	-1703.984985351562	826.2567138671875	-233.9794006347656	-1814.528076171875	1494.456787109375	216.3233947753906	-1835.287109375	1427.810302734375	286.2489929199219	-1851.527221679688	1136.150146484375	335.9114685058594	-1868.031127929688	1133.265502929688	239.2732543945312	-1715.397338867188	909.2947998046875	283.6983337402344	-1781.644653320312	890.5438232421875	342.1303405761719	-1824.02490234375	1062.118286132812	347.0027770996094	-1707.419921875	722.3482666015625	250.8204345703125	-1688.444702148438	815.2513427734375	283.9024047851562	-1753.504638671875	807.4600219726562	330.8588256835938	-1812.7431640625	1677.067993164062	113.4658203125	-1650.261962890625	1717.66552734375	-26.77459716796875	-1640.760131835938	1711.408569335938	102.329833984375	-1827.564697265625	1691.735107421875	-23.36499214172363	-1835.55517578125	994.024658203125	-137.7637939453125	-1786.429565429688	1003.410461425781	232.0157318115234	-1701.636596679688	1033.96533203125	176.8997497558594	-1712.031372070312	1031.438598632812	-81.70010375976562	-1705.105102539062	502.466552734375	-169.6971588134766	-1733.649780273438	648.7402954101562	-172.2574310302734	-1953.363403320312	93.4285888671875	-192.734130859375	-1821.700317382812	298.5105590820312	-194.283447265625	-1748.27587890625	38.31792068481445	-201.3279418945312	-1787.1630859375	40.12718200683594	-147.2616119384766	-1860.978515625	51.80642700195312	-246.9752960205078	-1990.345703125	106.4188079833984	-116.0556488037109	-1787.288208007812	504.0394287109375	182.6514892578125	-1734.099365234375	769.9063720703125	226.8203582763672	-1934.91259765625	33.71844100952148	161.31201171875	-1790.451293945312	381.1835632324219	159.1652374267578	-1711.0927734375	38.92572021484375	127.6255645751953	-1765.462036132812	38.50090789794922	82.51674652099609	-1821.942504882812	33.26260757446289	196.9031524658203	-1984.566528320312	34.76602172851562	92.40142822265625	
130	1.29	-1936.42138671875	1051.32470703125	110.4177398681641	-1937.763549804688	1054.735595703125	-12.46441555023193	-1934.564331054688	1092.921142578125	52.7056884765625	-1664.155151367188	1287.997192382812	45.69020843505859	-1959.954833984375	1255.98583984375	49.47140502929688	-1877.560302734375	1520.934692382812	39.69151306152344	-1684.796142578125	1404.881469726562	37.22397232055664	-1953.437377929688	1349.412109375	147.6187286376953	-1887.925170898438	1496.571411132812	-62.19684600830078	-1813.19970703125	1478.814819335938	-141.6051177978516	-1849.878784179688	1349.807495117188	-217.0506744384766	-1836.376953125	1131.788330078125	-242.7708129882812	-1885.4658203125	1115.16015625	-170.9201202392578	-1718.418579101562	904.1721801757812	-211.3062744140625	-1798.51953125	880.1348876953125	-255.4648590087891	-1819.182739257812	1021.660461425781	-258.4698181152344	-1696.052490234375	719.5359497070312	-192.3731994628906	-1773.801513671875	811.4442749023438	-251.8347778320312	-1704.280151367188	826.111328125	-233.1574401855469	-1812.311279296875	1494.208129882812	218.5588073730469	-1833.03564453125	1427.703735351562	288.6034545898438	-1849.7548828125	1136.17724609375	338.966064453125	-1866.732177734375	1133.166625976562	242.3222961425781	-1713.9150390625	909.1838989257812	286.6183471679688	-1780.052612304688	890.4618530273438	345.2056274414062	-1822.295043945312	1062.094482421875	350.0411682128906	-1706.15234375	722.1744384765625	253.840087890625	-1687.019409179688	815.1336059570312	286.8543701171875	-1751.964233398438	807.3776245117188	333.9093627929688	-1810.304077148438	1676.83203125	115.5558090209961	-1648.2177734375	1716.90185546875	-25.28294372558594	-1638.284912109375	1710.782958984375	103.8075942993164	-1825.55810546875	1691.387573242188	-21.19637870788574	-1834.968139648438	993.8801879882812	-135.9970092773438	-1785.378662109375	1002.977111816406	233.8441772460938	-1700.681396484375	1033.65087890625	178.8149871826172	-1711.552001953125	1031.538818359375	-79.84993743896484	-1695.374633789062	504.0281677246094	-168.7479248046875	-1726.453125	649.9772338867188	-170.6837463378906	-1949.810180664062	98.73455810546875	-189.9454193115234	-1814.540283203125	301.2879028320312	-192.5339965820312	-1746.35791015625	38.88349914550781	-201.6818237304688	-1784.297241210938	41.10764694213867	-147.1385498046875	-1859.127197265625	55.73716735839844	-245.5348815917969	-1985.383178710938	111.9795227050781	-112.7958908081055	-1786.856201171875	503.7958068847656	183.8813781738281	-1733.09619140625	769.6219482421875	228.3433380126953	-1935.010009765625	33.52548980712891	161.4879455566406	-1790.166015625	380.9752807617188	160.1735992431641	-1711.243286132812	38.91196441650391	127.5741806030273	-1765.621459960938	38.55891799926758	82.58168029785156	-1822.006225585938	33.06095886230469	197.0865936279297	-1984.647583007812	34.76065444946289	92.57829284667969	
131	1.3	-1935.43359375	1051.048095703125	112.3112258911133	-1936.951538085938	1054.376708984375	-10.44394016265869	-1933.596557617188	1092.649169921875	54.78803253173828	-1662.820190429688	1287.380004882812	47.4530029296875	-1958.72607421875	1256.036865234375	51.94514846801758	-1875.718017578125	1520.805908203125	42.05264663696289	-1682.942993164062	1404.37109375	39.11756134033203	-1951.745971679688	1349.450927734375	150.1657867431641	-1886.44189453125	1496.465454101562	-59.81241226196289	-1812.06005859375	1478.46142578125	-139.4427947998047	-1849.463500976562	1349.45947265625	-214.6019592285156	-1836.893676757812	1131.512084960938	-240.3258666992188	-1885.223388671875	1114.882446289062	-167.9192657470703	-1718.461181640625	903.997314453125	-210.2830047607422	-1799.11572265625	879.8370971679688	-253.3884429931641	-1819.949951171875	1021.364013671875	-256.2222900390625	-1695.697143554688	719.37939453125	-191.6515960693359	-1774.339721679688	811.1669311523438	-250.1174774169922	-1704.624145507812	825.9199829101562	-232.3120880126953	-1810.042236328125	1493.93505859375	220.7285308837891	-1830.727172851562	1427.556640625	290.8841552734375	-1847.899291992188	1136.184814453125	341.9924621582031	-1865.341430664062	1133.023681640625	245.3505096435547	-1712.391235351562	909.0308837890625	289.5903930664062	-1778.42919921875	890.3790893554688	348.3182678222656	-1820.4873046875	1062.05517578125	353.0672607421875	-1704.882202148438	721.9547119140625	256.9527893066406	-1685.571411132812	814.9471435546875	289.8887939453125	-1750.412719726562	807.275390625	337.0284729003906	-1807.785034179688	1676.5986328125	117.6063690185547	-1646.095947265625	1716.138061523438	-23.83792877197266	-1635.715209960938	1710.134521484375	105.2275390625	-1823.476684570312	1691.057739257812	-19.06035423278809	-1834.24560546875	993.7704467773438	-134.3492431640625	-1784.01123046875	1002.609741210938	235.5577850341797	-1699.631225585938	1033.361328125	180.6314544677734	-1710.949829101562	1031.638305664062	-78.11520385742188	-1685.864868164062	505.7487182617188	-167.6585693359375	-1719.519287109375	651.2946166992188	-169.1376037597656	-1945.647705078125	103.801887512207	-186.8382873535156	-1807.265258789062	304.1033325195312	-190.5712127685547	-1743.626708984375	39.7949333190918	-202.0512847900391	-1780.61865234375	42.43790817260742	-146.9843292236328	-1856.684204101562	59.84214019775391	-243.9489898681641	-1979.790649414062	117.0847473144531	-109.1931228637695	-1786.4091796875	503.560546875	185.0647125244141	-1732.0029296875	769.3516235351562	229.8128051757812	-1935.103271484375	33.35283660888672	161.651123046875	-1789.851684570312	380.7940063476562	161.1610870361328	-1711.39501953125	38.90327835083008	127.5539703369141	-1765.787109375	38.62571334838867	82.66292572021484	-1822.075805664062	32.83351135253906	197.287353515625	-1984.730346679688	34.78862762451172	92.75331878662109	
132	1.31	-1934.34619140625	1050.772216796875	114.0896453857422	-1936.001586914062	1054.030029296875	-8.54566764831543	-1932.521606445312	1092.368774414062	56.74031829833984	-1661.397338867188	1286.797485351562	49.13575744628906	-1957.41015625	1256.075927734375	54.32320022583008	-1873.817016601562	1520.680786132812	44.34088516235352	-1680.997680664062	1403.86865234375	40.94819259643555	-1949.999267578125	1349.476196289062	152.6239776611328	-1884.8916015625	1496.359008789062	-57.50308609008789	-1810.85595703125	1478.123779296875	-137.3676452636719	-1848.994995117188	1349.106323242188	-212.2155914306641	-1837.387084960938	1131.220703125	-237.8800811767578	-1884.92529296875	1114.612548828125	-164.9044342041016	-1718.561279296875	903.773193359375	-209.2278747558594	-1799.738159179688	879.5137939453125	-251.2664031982422	-1820.708984375	1021.053527832031	-253.9489135742188	-1695.42529296875	719.1763916015625	-190.9183654785156	-1774.927856445312	810.86328125	-248.3613586425781	-1705.022094726562	825.6911010742188	-231.4425048828125	-1807.724853515625	1493.653198242188	222.8226470947266	-1828.365234375	1427.380126953125	293.0794372558594	-1845.953369140625	1136.185180664062	344.9690856933594	-1863.841796875	1132.84423828125	248.3357849121094	-1710.827880859375	908.8408203125	292.6099548339844	-1776.77587890625	890.3092041015625	351.4675598144531	-1818.597045898438	1062.015258789062	356.062255859375	-1703.613037109375	721.6967163085938	260.1657104492188	-1684.10400390625	814.699462890625	293.0056457519531	-1748.861694335938	807.1605834960938	340.219482421875	-1805.1875	1676.3828125	119.6117858886719	-1643.890991210938	1715.386352539062	-22.43952941894531	-1633.052368164062	1709.47607421875	106.5899353027344	-1821.315795898438	1690.760620117188	-16.96601676940918	-1833.370239257812	993.725341796875	-132.8189544677734	-1782.397338867188	1002.307373046875	237.1626739501953	-1698.474853515625	1033.095458984375	182.3483428955078	-1710.191528320312	1031.753051757812	-76.486083984375	-1676.65380859375	507.6153564453125	-166.4651489257812	-1712.916625976562	652.6802368164062	-167.6500549316406	-1940.77734375	108.4679946899414	-183.4639282226562	-1799.898559570312	306.9010620117188	-188.42333984375	-1739.930908203125	41.10137939453125	-202.3310089111328	-1776.008422851562	44.10162353515625	-146.7213592529297	-1853.4580078125	63.96994018554688	-242.2008514404297	-1973.53271484375	121.5856170654297	-105.3140640258789	-1785.955810546875	503.3337097167969	186.1904907226562	-1730.840454101562	769.0813598632812	231.20947265625	-1935.188598632812	33.20451736450195	161.7966918945312	-1789.507934570312	380.631103515625	162.1098480224609	-1711.547973632812	38.90105056762695	127.5652389526367	-1765.945434570312	38.70249557495117	82.75570678710938	-1822.149169921875	32.58918762207031	197.4968566894531	-1984.811645507812	34.84357452392578	92.92441558837891	
